<?xml version="1.0" encoding="utf-8"?>
<!-- Generator: Adobe Illustrator 28.0.0, SVG Export Plug-In . SVG Version: 6.00 Build 0)  -->
<svg version="1.1" id="Laag_1" xmlns="http://www.w3.org/2000/svg" xmlns:xlink="http://www.w3.org/1999/xlink" x="0px" y="0px"
	 viewBox="0 0 93 93" style="enable-background:new 0 0 93 93;" xml:space="preserve">
<style type="text/css">
	.st0{fill:none;}
</style>
<polygon class="st0" points="-606.4,135.8 -602.1,135.8 -602.1,135.8 "/>
<path d="M46.5-0.2C20.7-0.2-0.2,20.7-0.2,46.5s20.9,46.7,46.7,46.7s46.7-20.9,46.7-46.7S72.3-0.2,46.5-0.2z M78.6,63.5
	c-1.9,2.8-8.8,10.5-27.1,11.1c-15.3,0.5-24.8-9.8-29.3-16.3c-2.7-4-4.4-8.6-4.7-13.4c-0.3-4.6,0.5-10.1,5.2-13.2
	c1.8-1.2,3.4-2.6,4.7-4.3c1.4-1.8,2.8-4.1,3.1-6.4c0-0.5,0.1-0.9,0.3-1.4c0.2-0.7,0.6-1.4,1-1.3c0.6,0.1,3,1.9,4.1,2.6
	c0.3,0.2,0.5,0.5,0.6,0.9c0.1,0.6-0.1,1.2-0.5,1.6l-1.3,1.1c-0.1,0.1-0.2,0.2-0.3,0.3c-0.7,0.9-4,5.7-2.9,8.8c1,3-0.9,13.5,8.8,20.9
	c3.1,2.3,6.7,3.9,10.6,4.5c4.5,0.7,12.6,1.5,23.6,0.3c1.2-0.1,2.5,0.2,3.5,0.9c0,0,0,0,0.1,0C79.1,61,79.4,62.4,78.6,63.5z"/>
</svg>
