<?xml version="1.0" encoding="utf-8"?>
<!-- Generator: Adobe Illustrator 28.0.0, SVG Export Plug-In . SVG Version: 6.00 Build 0)  -->
<svg version="1.1" id="Laag_1" xmlns="http://www.w3.org/2000/svg" xmlns:xlink="http://www.w3.org/1999/xlink" x="0px" y="0px"
	 viewBox="0 0 93 93" style="enable-background:new 0 0 93 93;" xml:space="preserve">
<style type="text/css">
	.st0{fill:none;}
</style>
<polygon class="st0" points="-606.4,135.8 -602.1,135.8 -602.1,135.8 "/>
<g>
	<path d="M34.7,24.5c-0.1,0.1-0.2,0.2-0.3,0.3c-0.7,0.9-4,5.7-2.9,8.8c1,3-0.9,13.5,8.8,20.9c3.1,2.3,6.7,3.9,10.6,4.5
		c4.5,0.7,12.6,1.5,23.6,0.3c1.2-0.1,2.5,0.2,3.5,0.9c0,0,0,0,0.1,0c1,0.8,1.3,2.2,0.5,3.3c-1.9,2.8-8.8,10.5-27.1,11.1
		c-15.3,0.5-24.8-9.8-29.3-16.3c-2.7-4-4.4-8.6-4.7-13.4c-0.3-4.6,0.5-10.1,5.2-13.2c1.8-1.2,3.4-2.6,4.7-4.3
		c1.4-1.8,2.8-4.1,3.1-6.4c0-0.5,0.1-0.9,0.3-1.4c0.2-0.7,0.6-1.4,1-1.3c0.6,0.1,3,1.9,4.1,2.6c0.3,0.2,0.5,0.5,0.6,0.9l0,0
		c0.1,0.6-0.1,1.2-0.5,1.6L34.7,24.5z"/>
</g>
</svg>
