<?xml version="1.0" encoding="utf-8"?>
<!-- Generator: Adobe Illustrator 28.0.0, SVG Export Plug-In . SVG Version: 6.00 Build 0)  -->
<svg version="1.1" id="Laag_1" xmlns="http://www.w3.org/2000/svg" xmlns:xlink="http://www.w3.org/1999/xlink" x="0px" y="0px"
	 viewBox="0 0 538.1 660.2" style="enable-background:new 0 0 538.1 660.2;" xml:space="preserve">
<style type="text/css">
	.st0{fill:#FFFFFF;}
	.st1{fill:#FCD921;}
</style>
<path class="st0" d="M538.1,269.1c0,109.3-65.2,203.4-158.9,245.5l-97.6,138.9c-5.9,8.9-18.2,8.9-24.2,0.1L156.2,513.4
	C64,470.7,0,377.4,0,269.1C0,120.5,120.5,0,269.1,0S538.1,120.5,538.1,269.1z"/>
<g>
	<path class="st1" d="M182.8,130.4c-0.7,0.5-1.2,1.2-1.8,1.9c-4.4,6-25.4,36.3-18.8,56.6c6.2,19.2-5.7,86.4,56.4,133.6
		c19.7,15,43.1,24.7,67.6,28.6c29,4.7,80.8,9.5,151.1,2.1c7.9-0.8,16,1.1,22.4,5.8c0.1,0.1,0.2,0.2,0.3,0.3c6.6,5,8.1,14.3,3.4,21.2
		c-12.3,17.8-56.6,67.2-173.4,71c-98,3.2-158.8-62.5-187.3-104.1c-17.5-25.5-28.2-55-30.4-85.8c-2.1-29.6,3.3-64.4,33.3-84.2
		c11.4-7.5,21.8-16.5,30.4-27.2c9.1-11.4,18-26.1,19.5-41.1c0.3-3,0.9-6,1.8-8.9c1.4-4.2,3.7-9,6.4-8.5c3.7,0.7,19.3,12,25.9,16.9
		c1.9,1.4,3.3,3.5,3.8,5.8v0c0.9,3.7-0.5,7.6-3.5,10.1L182.8,130.4z"/>
</g>
</svg>
