<?xml version="1.0" encoding="utf-8"?>
<!-- Generator: Adobe Illustrator 28.0.0, SVG Export Plug-In . SVG Version: 6.00 Build 0)  -->
<svg version="1.1" id="Laag_1" xmlns="http://www.w3.org/2000/svg" xmlns:xlink="http://www.w3.org/1999/xlink" x="0px" y="0px"
	 viewBox="0 0 41.5 41.5" style="enable-background:new 0 0 41.5 41.5;" xml:space="preserve">
<style type="text/css">
	.st0{fill:#F8CC46;}
</style>
<rect x="-1" y="-0.5" class="st0" width="43" height="43"/>
<path d="M20.8,2.6c-8.2,0-14.8,6.6-14.8,14.8c0,6,3.5,11.1,8.6,13.4l5.6,7.7c0.3,0.5,1,0.5,1.3,0l5.4-7.6c5.2-2.3,8.7-7.5,8.7-13.5
	C35.6,9.2,28.9,2.6,20.8,2.6z M21.8,27.7c-5.4,0.2-8.7-3.4-10.3-5.7c-1-1.4-1.6-3-1.7-4.7c-0.1-1.6,0.2-3.5,1.8-4.6
	c0.6-0.4,1.2-0.9,1.7-1.5c0.5-0.6,1-1.4,1.1-2.3c0-0.2,0-0.3,0.1-0.5c0.1-0.2,0.2-0.5,0.4-0.5c0.2,0,1.1,0.7,1.4,0.9
	c0.1,0.1,0.2,0.2,0.2,0.3c0,0.2,0,0.4-0.2,0.6L15.9,10c0,0-0.1,0.1-0.1,0.1c-0.2,0.3-1.4,2-1,3.1c0.3,1.1-0.3,4.8,3.1,7.4
	c1.1,0.8,2.4,1.4,3.7,1.6c1.6,0.3,4.4,0.5,8.3,0.1c0.4,0,0.9,0.1,1.2,0.3c0,0,0,0,0,0c0.4,0.3,0.4,0.8,0.2,1.2
	C30.7,24.7,28.2,27.4,21.8,27.7z"/>
</svg>
