<?xml version="1.0" encoding="utf-8"?>
<!-- Generator: Adobe Illustrator 28.0.0, SVG Export Plug-In . SVG Version: 6.00 Build 0)  -->
<svg version="1.1" id="Laag_1" xmlns="http://www.w3.org/2000/svg" xmlns:xlink="http://www.w3.org/1999/xlink" x="0px" y="0px"
	 viewBox="0 0 93 93" style="enable-background:new 0 0 93 93;" xml:space="preserve">
<style type="text/css">
	.st0{fill:none;}
</style>
<polygon class="st0" points="-606.4,135.8 -602.1,135.8 -602.1,135.8 "/>
<path d="M73.2,40.5h-4.7c-0.5,0-0.9-0.3-1.1-0.8c-0.4-1.2-0.9-2.4-1.4-3.5c-0.2-0.4-0.1-1,0.2-1.3l3.3-3.3c0.4-0.4,0.4-1.2,0-1.6
	l-6.7-6.7c-0.4-0.4-1.2-0.4-1.6,0l-3.3,3.3C57.5,27,57,27,56.6,26.8c-1.2-0.6-2.4-1.1-3.6-1.5c-0.5-0.1-0.8-0.6-0.8-1.1v-4.8
	c0-0.6-0.5-1.1-1.1-1.1h-9.5c-0.6,0-1.1,0.5-1.1,1.1v4.9c0,0.5-0.3,0.9-0.8,1.1c-1.2,0.4-2.4,0.9-3.6,1.5c-0.4,0.2-1,0.2-1.3-0.2
	l-3.5-3.5c-0.4-0.4-1.2-0.4-1.6,0L23,29.9c-0.4,0.4-0.4,1.2,0,1.6l3.6,3.6c0.3,0.3,0.4,0.9,0.2,1.3c-0.6,1.1-1,2.2-1.4,3.4
	c-0.1,0.5-0.6,0.8-1.1,0.8h-4.9c-0.6,0-1.1,0.5-1.1,1.1v9.5c0,0.6,0.5,1.1,1.1,1.1h4.8c0.5,0,0.9,0.3,1.1,0.8
	c0.4,1.3,0.9,2.5,1.5,3.6c0.2,0.4,0.2,1-0.2,1.3l-3.5,3.5c-0.4,0.4-0.4,1.2,0,1.6l6.7,6.7c0.4,0.4,1.2,0.4,1.6,0l3.5-3.5
	c0.3-0.3,0.9-0.4,1.3-0.2c1.1,0.6,2.3,1.1,3.5,1.4c0.5,0.2,0.8,0.6,0.8,1.1v4.7c0,0.6,0.5,1.1,1.1,1.1H51c0.6,0,1.1-0.5,1.1-1.1
	v-4.6c0-0.5,0.3-0.9,0.8-1.1c1.2-0.4,2.4-0.9,3.5-1.4c0.4-0.2,1-0.1,1.3,0.2l3.2,3.2c0.4,0.4,1.2,0.4,1.6,0l6.7-6.7
	c0.4-0.4,0.4-1.2,0-1.6L66,58.1c-0.4-0.4-0.4-0.9-0.2-1.3c0.6-1.2,1.2-2.4,1.6-3.7c0.1-0.5,0.6-0.8,1.1-0.8h4.6
	c0.6,0,1.1-0.5,1.1-1.1v-9.5C74.4,41,73.9,40.5,73.2,40.5z M46.3,57.1c-5.9,0-10.7-4.8-10.7-10.7s4.8-10.7,10.7-10.7
	S57,40.5,57,46.4S52.2,57.1,46.3,57.1z"/>
</svg>
