<?xml version="1.0" encoding="utf-8"?>
<!-- Generator: Adobe Illustrator 28.0.0, SVG Export Plug-In . SVG Version: 6.00 Build 0)  -->
<svg version="1.1" id="Laag_1" xmlns="http://www.w3.org/2000/svg" xmlns:xlink="http://www.w3.org/1999/xlink" x="0px" y="0px"
	 viewBox="0 0 93 93" style="enable-background:new 0 0 93 93;" xml:space="preserve">
<style type="text/css">
	.st0{fill:none;}
</style>
<polygon class="st0" points="-606.4,135.8 -602.1,135.8 -602.1,135.8 "/>
<g>
	<circle cx="46.3" cy="46.4" r="10.7"/>
	<path d="M46.5-0.2C20.7-0.2-0.2,20.7-0.2,46.5s20.9,46.7,46.7,46.7s46.7-20.9,46.7-46.7S72.3-0.2,46.5-0.2z M74.2,41.7v9.5
		c0,0.6-0.5,1.1-1.1,1.1h-4.6c-0.5,0-1,0.3-1.1,0.8c-0.4,1.3-1,2.5-1.6,3.7c-0.2,0.4-0.2,0.9,0.2,1.3l3.2,3.2c0.4,0.4,0.4,1.2,0,1.6
		l-6.7,6.7c-0.4,0.4-1.2,0.4-1.6,0l-3.2-3.2c-0.3-0.3-0.9-0.4-1.3-0.2c-1.1,0.5-2.3,1-3.5,1.4c-0.5,0.2-0.8,0.6-0.8,1.1v4.6
		c0,0.6-0.5,1.1-1.1,1.1h-9.4c-0.6,0-1.1-0.5-1.1-1.1v-4.7c0-0.5-0.3-0.9-0.8-1.1c-1.2-0.3-2.4-0.8-3.5-1.4c-0.4-0.2-1-0.1-1.3,0.2
		l-3.5,3.5c-0.4,0.4-1.2,0.4-1.6,0l-6.7-6.7c-0.4-0.4-0.4-1.2,0-1.6l3.5-3.5c0.4-0.3,0.4-0.9,0.2-1.3c-0.6-1.1-1.1-2.3-1.5-3.6
		c-0.2-0.5-0.6-0.8-1.1-0.8h-4.8c-0.6,0-1.1-0.5-1.1-1.1v-9.5c0-0.6,0.5-1.1,1.1-1.1h4.9c0.5,0,1-0.3,1.1-0.8
		c0.4-1.2,0.8-2.3,1.4-3.4c0.2-0.4,0.1-1-0.2-1.3L23,31.5c-0.4-0.4-0.4-1.2,0-1.6l6.7-6.7c0.4-0.4,1.2-0.4,1.6,0l3.5,3.5
		c0.3,0.4,0.9,0.4,1.3,0.2c1.2-0.6,2.4-1.1,3.6-1.5c0.5-0.2,0.8-0.6,0.8-1.1v-4.9c0-0.6,0.5-1.1,1.1-1.1h9.5c0.6,0,1.1,0.5,1.1,1.1
		v4.8c0,0.5,0.3,1,0.8,1.1c1.2,0.4,2.4,0.9,3.6,1.5c0.4,0.2,0.9,0.2,1.3-0.2l3.3-3.3c0.4-0.4,1.2-0.4,1.6,0l6.7,6.7
		c0.4,0.4,0.4,1.2,0,1.6l-3.3,3.3c-0.3,0.3-0.4,0.9-0.2,1.3c0.5,1.1,1,2.3,1.4,3.5c0.2,0.5,0.6,0.8,1.1,0.8h4.7
		C73.9,40.5,74.4,41,74.2,41.7z"/>
</g>
</svg>
