<?xml version="1.0" encoding="utf-8"?>
<!-- Generator: Adobe Illustrator 28.0.0, SVG Export Plug-In . SVG Version: 6.00 Build 0)  -->
<svg version="1.1" id="Laag_1" xmlns="http://www.w3.org/2000/svg" xmlns:xlink="http://www.w3.org/1999/xlink" x="0px" y="0px"
	 viewBox="0 0 93 93" style="enable-background:new 0 0 93 93;" xml:space="preserve">
<style type="text/css">
	.st0{fill:none;}
</style>
<polygon class="st0" points="-606.4,135.8 -602.1,135.8 -602.1,135.8 "/>
<g>
	<ellipse transform="matrix(0.9732 -0.2298 0.2298 0.9732 -7.6881 11.77)" cx="46.7" cy="38.9" rx="10.1" ry="10.1"/>
	<path d="M46.5-0.2C20.7-0.2-0.2,20.7-0.2,46.5s20.9,46.7,46.7,46.7s46.7-20.9,46.7-46.7S72.3-0.2,46.5-0.2z M63.3,51.7L48.8,73.4
		c-0.9,1.5-3.1,1.5-4.1,0L29.9,51.7c-2.6-3.5-4.1-7.8-4.1-12.5c0-11.5,9.3-20.8,20.8-20.9c11.4-0.1,20.8,9.2,20.8,20.6
		C67.5,43.7,66,48.1,63.3,51.7z"/>
</g>
</svg>
