<?xml version="1.0" encoding="utf-8"?>
<!-- Generator: Adobe Illustrator 28.0.0, SVG Export Plug-In . SVG Version: 6.00 Build 0)  -->
<svg version="1.1" id="Laag_1" xmlns="http://www.w3.org/2000/svg" xmlns:xlink="http://www.w3.org/1999/xlink" x="0px" y="0px"
	 viewBox="0 0 93 93" style="enable-background:new 0 0 93 93;" xml:space="preserve">
<style type="text/css">
	.st0{fill:none;}
</style>
<polygon class="st0" points="-606.4,135.8 -602.1,135.8 -602.1,135.8 "/>
<path d="M46.6,18.3c-11.5,0.1-20.8,9.4-20.8,20.9c0,4.7,1.5,9,4.1,12.5l0,0l14.8,21.7c1,1.5,3.2,1.5,4.1,0l14.5-21.7l0,0
	c2.7-3.6,4.2-8,4.1-12.8C67.4,27.5,58,18.2,46.6,18.3z M46.7,49c-5.6,0-10.1-4.5-10.1-10.1s4.5-10.1,10.1-10.1s10.1,4.5,10.1,10.1
	S52.3,49,46.7,49z"/>
</svg>
