<?xml version="1.0" encoding="utf-8"?>
<!-- Generator: Adobe Illustrator 28.0.0, SVG Export Plug-In . SVG Version: 6.00 Build 0)  -->
<svg version="1.1" id="Laag_1" xmlns="http://www.w3.org/2000/svg" xmlns:xlink="http://www.w3.org/1999/xlink" x="0px" y="0px"
	 viewBox="0 0 988 1222" style="enable-background:new 0 0 988 1222;" xml:space="preserve">
<style type="text/css">
	.st0{fill:#FFFFFF;}
</style>
<g>
	<path d="M122.3,303.2c7.9,5,13.3,11.7,16.2,20.3c2.9,8.6,4.4,17.1,4.4,25.7c0,13.3-2.2,25.4-6.6,36.2
		c-4.4,10.8-11.5,19.3-21.1,25.5c-9.7,6.2-22.8,9.3-39.3,9.3H24.5c-2.9,0-4.7-0.7-5.2-2.2c-0.6-1.5-0.8-3.7-0.8-6.6V193.6
		c0-3.8,0.4-6.5,1.4-8c0.9-1.5,3.2-2.2,6.8-2.2h42.6c24.6,0,42.6,6.3,54,18.8c11.4,12.5,17.1,28.8,17.1,48.9
		c0,18.9-6.4,33.8-19.3,44.7c-2,1.6-3,2.7-3,3.4c0,0.7,0.3,1.2,0.8,1.7C119.3,301.3,120.5,302.1,122.3,303.2z M63.4,279.9h5.8
		c10.2,0,17.8-2.6,22.8-8c5.1-5.3,7.6-12.2,7.6-20.8c0-7.7-2.4-13.5-7.1-17.6c-4.7-4.1-11.4-6.1-20-6.1h-8.1c-2.7,0-4.1,0.9-4.1,2.7
		v46c0,1.6,0.3,2.6,0.8,3C61.8,279.7,62.5,279.9,63.4,279.9z M60.4,321.5v49.7c0,2.3,0.3,3.6,1,4.1c0.7,0.5,2.1,0.7,4.4,0.7h8.5
		c16.5,0,24.7-9.5,24.7-28.4c0-11.3-3-19.2-9-23.7c-6-4.5-12.4-6.8-19.1-6.8h-6.1C61.8,317.1,60.4,318.6,60.4,321.5z"/>
	<path d="M213.3,379.7l-5.8,34.9c-0.2,2.3-1.6,3.8-4.2,4.6c-2.6,0.8-5.2,1.2-8,1.2H173c-2.9,0-5.9-0.2-8.8-0.5
		c-2.9-0.3-4.4-1.6-4.4-3.9c0-0.7,0.1-1.5,0.3-2.4l47-220.6c0.9-4.1,2.1-6.7,3.7-7.8c1.6-1.1,4.8-1.7,9.8-1.7h31.8
		c4.3,0,7,0.8,8.1,2.5c1.1,1.7,2,4.1,2.7,7.3l47.4,221c0.2,0.9,0.4,1.7,0.5,2.4c0.1,0.7,0.2,1.2,0.2,1.7c0,1.4-1.7,2-5.1,2h-39.6
		c-2.9,0-4.7-0.5-5.2-1.5c-0.6-1-1.1-2.8-1.5-5.2l-5.1-31.8c-0.2-2.5-0.9-4-2-4.6c-1.1-0.6-2.6-0.8-4.4-0.8h-27.1
		c-3.2,0-5.2,0.2-6.1,0.5C214.4,377.2,213.8,378.1,213.3,379.7z M225.8,349.2h15.6c2.9,0,4.9-0.6,5.9-1.9c1-1.2,1.5-3,1.5-5.2
		c0-0.7,0-1.4,0-2.2c0-0.8-0.1-1.6-0.3-2.5l-9.8-67c-0.2-2.5-0.6-4-1.2-4.6c-0.6-0.6-1.4-0.8-2.5-0.8c-1.1,0-1.9,0.3-2.2,0.8
		c-0.3,0.6-0.7,2.1-1.2,4.6L221.1,334c-0.7,3.4-1,6.1-1,8.1c0,3.2,0.6,5.1,1.7,5.9C222.9,348.9,224.2,349.2,225.8,349.2z"/>
	<path d="M433.9,183.4h32.8c2.5,0,4,0.4,4.6,1.2c0.6,0.8,0.8,2.4,0.8,4.9v224.3c0,2.3-0.2,3.9-0.7,4.9c-0.5,1-1.9,1.5-4.4,1.5h-40.6
		c-2.9,0-4.6-0.4-5.1-1.4c-0.5-0.9-1.1-2.5-2-4.7l-37.2-103.5c-2.5-7.2-4.2-10.3-5.1-9.3c-0.9,1-1.4,4.3-1.4,10v101.9
		c0,2.9-0.2,4.9-0.5,5.8c-0.3,0.9-2.1,1.4-5.2,1.4h-31.5c-3.4,0-5.4-0.3-5.9-0.8c-0.6-0.6-0.8-2.5-0.8-5.9V190.2
		c0-3.4,0.3-5.4,0.8-5.9c0.6-0.6,2.5-0.8,5.9-0.8h38.2c4.1,0,6.5,0.5,7.3,1.4c0.8,0.9,1.7,2.7,2.9,5.4l35.9,85.6
		c2,5,3.4,7.3,4.2,6.9c0.8-0.3,1.2-2.9,1.2-7.6v-87c0-2.3,0.4-3.6,1.2-4.1C430.1,183.7,431.7,183.4,433.9,183.4z"/>
	<path d="M545.9,379.7l-5.8,34.9c-0.2,2.3-1.6,3.8-4.2,4.6c-2.6,0.8-5.2,1.2-8,1.2h-22.3c-2.9,0-5.9-0.2-8.8-0.5
		c-2.9-0.3-4.4-1.6-4.4-3.9c0-0.7,0.1-1.5,0.3-2.4l47-220.6c0.9-4.1,2.1-6.7,3.7-7.8c1.6-1.1,4.8-1.7,9.8-1.7h31.8
		c4.3,0,7,0.8,8.1,2.5c1.1,1.7,2,4.1,2.7,7.3l47.4,221c0.2,0.9,0.4,1.7,0.5,2.4c0.1,0.7,0.2,1.2,0.2,1.7c0,1.4-1.7,2-5.1,2h-39.6
		c-2.9,0-4.7-0.5-5.2-1.5c-0.6-1-1.1-2.8-1.5-5.2l-5.1-31.8c-0.2-2.5-0.9-4-2-4.6c-1.1-0.6-2.6-0.8-4.4-0.8h-27.1
		c-3.2,0-5.2,0.2-6.1,0.5C547.1,377.2,546.4,378.1,545.9,379.7z M558.5,349.2H574c2.9,0,4.9-0.6,5.9-1.9c1-1.2,1.5-3,1.5-5.2
		c0-0.7,0-1.4,0-2.2c0-0.8-0.1-1.6-0.3-2.5l-9.8-67c-0.2-2.5-0.6-4-1.2-4.6c-0.6-0.6-1.4-0.8-2.5-0.8c-1.1,0-1.9,0.3-2.2,0.8
		c-0.3,0.6-0.7,2.1-1.2,4.6L553.7,334c-0.7,3.4-1,6.1-1,8.1c0,3.2,0.6,5.1,1.7,5.9C555.5,348.9,556.9,349.2,558.5,349.2z"/>
	<path d="M711.1,379.7l-5.8,34.9c-0.2,2.3-1.6,3.8-4.2,4.6c-2.6,0.8-5.2,1.2-8,1.2h-22.3c-2.9,0-5.9-0.2-8.8-0.5
		c-2.9-0.3-4.4-1.6-4.4-3.9c0-0.7,0.1-1.5,0.3-2.4l47-220.6c0.9-4.1,2.1-6.7,3.7-7.8c1.6-1.1,4.8-1.7,9.8-1.7h31.8
		c4.3,0,7,0.8,8.1,2.5c1.1,1.7,2,4.1,2.7,7.3l47.4,221c0.2,0.9,0.4,1.7,0.5,2.4c0.1,0.7,0.2,1.2,0.2,1.7c0,1.4-1.7,2-5.1,2h-39.6
		c-2.9,0-4.7-0.5-5.2-1.5c-0.6-1-1.1-2.8-1.5-5.2l-5.1-31.8c-0.2-2.5-0.9-4-2-4.6c-1.1-0.6-2.6-0.8-4.4-0.8h-27.1
		c-3.2,0-5.2,0.2-6.1,0.5C712.2,377.2,711.5,378.1,711.1,379.7z M723.6,349.2h15.6c2.9,0,4.9-0.6,5.9-1.9c1-1.2,1.5-3,1.5-5.2
		c0-0.7,0-1.4,0-2.2c0-0.8-0.1-1.6-0.3-2.5l-9.8-67c-0.2-2.5-0.6-4-1.2-4.6c-0.6-0.6-1.4-0.8-2.5-0.8c-1.1,0-1.9,0.3-2.2,0.8
		c-0.3,0.6-0.7,2.1-1.2,4.6L718.8,334c-0.7,3.4-1,6.1-1,8.1c0,3.2,0.6,5.1,1.7,5.9C720.6,348.9,722,349.2,723.6,349.2z"/>
	<path d="M931.7,183.4h32.8c2.5,0,4,0.4,4.6,1.2c0.6,0.8,0.8,2.4,0.8,4.9v224.3c0,2.3-0.2,3.9-0.7,4.9c-0.5,1-1.9,1.5-4.4,1.5h-40.6
		c-2.9,0-4.6-0.4-5.1-1.4c-0.5-0.9-1.1-2.5-2-4.7l-37.2-103.5c-2.5-7.2-4.2-10.3-5.1-9.3c-0.9,1-1.4,4.3-1.4,10v101.9
		c0,2.9-0.2,4.9-0.5,5.8c-0.3,0.9-2.1,1.4-5.2,1.4h-31.5c-3.4,0-5.4-0.3-5.9-0.8c-0.6-0.6-0.8-2.5-0.8-5.9V190.2
		c0-3.4,0.3-5.4,0.8-5.9c0.6-0.6,2.5-0.8,5.9-0.8h38.2c4.1,0,6.5,0.5,7.3,1.4c0.8,0.9,1.7,2.7,2.9,5.4l35.9,85.6
		c2,5,3.4,7.3,4.2,6.9c0.8-0.3,1.2-2.9,1.2-7.6v-87c0-2.3,0.4-3.6,1.2-4.1C927.9,183.7,929.4,183.4,931.7,183.4z"/>
</g>
<g>
	<path class="st0" d="M94.4,147.5c0,0.6-0.2,1.1-0.6,1.4c-0.4,0.3-1.3,0.5-2.8,0.5c-1.6,0-3-0.7-4.2-2l-5.2-5.7
		c-1-1.2-2-1.3-3.1-0.4c-3.1,2.7-6.5,5-10.2,6.9c-3.7,1.9-8.4,2.9-14.1,2.9c-7,0-12.5-0.9-16.5-2.8c-4-1.8-7.5-4.4-10.6-7.7
		c-2.9-3.3-5.1-8-6.4-14.2c-1.4-6.1-2.2-13-2.5-20.5c-0.3-7.5-0.5-15-0.5-22.4c0-7.2,0.2-14.2,0.5-21c0.3-6.7,1.2-13,2.7-18.8
		c1.5-5.8,3.9-10.7,7.4-14.7c2.6-2.9,6.1-5.4,10.6-7.5c4.5-2,10-3,16.7-3c7.7,0,13.7,0.9,18,2.7c4.3,1.8,7.9,4.6,10.9,8.6
		c3.6,4.8,6,9.9,7.3,15.2c1.3,5.3,1.9,12.2,1.9,20.7c0,2.3-0.2,3.8-0.6,4.4c-0.4,0.6-1.6,0.9-3.6,0.9H70.1c-1,0-1.9-0.2-2.7-0.6
		c-0.8-0.4-1.2-1.1-1.2-1.9V58.2c0-3.8-0.1-6.6-0.4-8.5c-0.2-1.8-1-3.7-2.2-5.5c-0.9-1.3-2-2.3-3.4-2.9c-1.4-0.6-2.7-0.8-4-0.8
		c-1.7,0-3.2,0.3-4.4,0.8c-1.2,0.6-2.3,1.6-3.3,3.2c-0.7,1.1-1.3,3.2-1.7,6.3c-0.4,3.1-0.7,6.6-0.8,10.7c-0.1,4.1-0.2,8.1-0.3,12.1
		c-0.1,4-0.1,7.5-0.1,10.4c0,3.1,0,6.6,0.1,10.6c0.1,4,0.2,7.9,0.4,11.9c0.2,3.9,0.4,7.4,0.6,10.5c0.2,3.1,0.6,5.3,1.1,6.6
		c1.2,3.6,3.8,5.3,7.7,5.3c4.9,0,7.9-1.5,8.9-4.5c1-3,1.6-7.1,1.6-12.4c0-1.7-0.1-2.8-0.3-3.3c-0.2-0.5-0.7-0.7-1.6-0.7
		c-1.1,0-2.5-0.2-4.1-0.5c-1.7-0.3-2.5-1.3-2.5-2.9V83c0-1.5,0.3-2.5,0.8-2.9c0.6-0.5,1.5-0.7,2.9-0.7h29.6c1.3,0,2.3,0.2,2.8,0.7
		c0.5,0.5,0.7,1.4,0.7,2.8V147.5z"/>
	<path class="st0" d="M134.5,127l-3.1,19c-0.1,1.2-0.9,2.1-2.3,2.5c-1.4,0.4-2.9,0.6-4.3,0.6h-12.2c-1.6,0-3.2-0.1-4.8-0.3
		c-1.6-0.2-2.4-0.9-2.4-2.1c0-0.4,0.1-0.8,0.2-1.3l25.6-120c0.5-2.2,1.2-3.6,2-4.2c0.9-0.6,2.6-0.9,5.3-0.9h17.3
		c2.3,0,3.8,0.5,4.4,1.4c0.6,0.9,1.1,2.2,1.5,4l25.8,120.2c0.1,0.5,0.2,0.9,0.3,1.3c0.1,0.4,0.1,0.7,0.1,0.9c0,0.7-0.9,1.1-2.8,1.1
		h-21.5c-1.6,0-2.5-0.3-2.9-0.8c-0.3-0.6-0.6-1.5-0.8-2.9l-2.8-17.3c-0.1-1.3-0.5-2.2-1.1-2.5c-0.6-0.3-1.4-0.5-2.4-0.5h-14.7
		c-1.7,0-2.8,0.1-3.3,0.3C135.1,125.6,134.8,126.2,134.5,127z M141.3,110.5h8.5c1.6,0,2.7-0.3,3.2-1c0.6-0.7,0.8-1.6,0.8-2.9
		c0-0.4,0-0.8,0-1.2c0-0.4-0.1-0.9-0.2-1.4l-5.3-36.5c-0.1-1.3-0.3-2.2-0.6-2.5c-0.3-0.3-0.8-0.5-1.4-0.5c-0.6,0-1,0.2-1.2,0.5
		c-0.2,0.3-0.4,1.1-0.6,2.5l-5.7,34.6c-0.4,1.8-0.6,3.3-0.6,4.4c0,1.7,0.3,2.8,0.9,3.2C139.7,110.2,140.5,110.5,141.3,110.5z"/>
	<path class="st0" d="M224.4,127l-3.1,19c-0.1,1.2-0.9,2.1-2.3,2.5c-1.4,0.4-2.9,0.6-4.3,0.6h-12.2c-1.6,0-3.2-0.1-4.8-0.3
		c-1.6-0.2-2.4-0.9-2.4-2.1c0-0.4,0.1-0.8,0.2-1.3l25.6-120c0.5-2.2,1.2-3.6,2-4.2c0.9-0.6,2.6-0.9,5.3-0.9h17.3
		c2.3,0,3.8,0.5,4.4,1.4c0.6,0.9,1.1,2.2,1.5,4l25.8,120.2c0.1,0.5,0.2,0.9,0.3,1.3c0.1,0.4,0.1,0.7,0.1,0.9c0,0.7-0.9,1.1-2.8,1.1
		h-21.5c-1.6,0-2.5-0.3-2.9-0.8c-0.3-0.6-0.6-1.5-0.8-2.9l-2.8-17.3c-0.1-1.3-0.5-2.2-1.1-2.5c-0.6-0.3-1.4-0.5-2.4-0.5h-14.7
		c-1.7,0-2.8,0.1-3.3,0.3C225,125.6,224.6,126.2,224.4,127z M231.2,110.5h8.5c1.6,0,2.7-0.3,3.2-1c0.6-0.7,0.8-1.6,0.8-2.9
		c0-0.4,0-0.8,0-1.2c0-0.4-0.1-0.9-0.2-1.4l-5.3-36.5c-0.1-1.3-0.3-2.2-0.6-2.5c-0.3-0.3-0.8-0.5-1.4-0.5c-0.6,0-1,0.2-1.2,0.5
		c-0.2,0.3-0.4,1.1-0.6,2.5l-5.7,34.6c-0.4,1.8-0.6,3.3-0.6,4.4c0,1.7,0.3,2.8,0.9,3.2C229.6,110.2,230.3,110.5,231.2,110.5z"/>
	<path class="st0" d="M344.4,20.2h17.9c1.3,0,2.2,0.2,2.5,0.6c0.3,0.4,0.5,1.3,0.5,2.7v122.1c0,1.2-0.1,2.1-0.4,2.7
		c-0.2,0.6-1,0.8-2.4,0.8h-22.1c-1.6,0-2.5-0.2-2.8-0.7c-0.2-0.5-0.6-1.3-1.1-2.6l-20.3-56.3c-1.4-3.9-2.3-5.6-2.8-5.1
		c-0.5,0.6-0.7,2.4-0.7,5.4v55.4c0,1.6-0.1,2.6-0.3,3.1c-0.2,0.5-1.1,0.7-2.9,0.7h-17.1c-1.8,0-2.9-0.2-3.2-0.5
		c-0.3-0.3-0.5-1.4-0.5-3.2V23.9c0-1.8,0.2-2.9,0.5-3.2c0.3-0.3,1.4-0.5,3.2-0.5h20.8c2.2,0,3.5,0.2,4,0.7c0.4,0.5,0.9,1.5,1.6,2.9
		l19.5,46.6c1.1,2.7,1.9,4,2.3,3.8c0.4-0.2,0.6-1.6,0.6-4.1V22.8c0-1.2,0.2-2,0.6-2.2C342.4,20.4,343.2,20.2,344.4,20.2z"/>
	<path class="st0" d="M516.4,61.5L496.7,146c-0.2,1.4-0.5,2.2-0.8,2.6c-0.3,0.4-1.3,0.6-3,0.6h-12.2c-1.6,0-2.6-0.3-2.9-0.8
		c-0.4-0.6-0.7-1.4-0.9-2.7l-17.5-81c-0.6-2.5-1.2-3.7-1.8-3.7c-0.4,0-0.5,0.3-0.4,0.9c0.1,0.6,0.2,1.5,0.2,2.8v81
		c0,1.4-0.1,2.3-0.4,2.8c-0.2,0.5-1.1,0.7-2.6,0.7h-16c-1.5,0-2.4-0.2-2.7-0.7c-0.3-0.5-0.5-1.5-0.5-3.1V23.7c0-1.6,0.2-2.6,0.6-2.9
		c0.4-0.4,1.3-0.6,2.8-0.6h30.6c1.8,0,3,0.3,3.5,0.8c0.5,0.6,0.9,1.6,1.1,3.2l12.2,57.4c0.4,1.6,0.7,2.7,0.9,3.2
		c0.2,0.6,0.6,0.8,0.9,0.8c0.5,0,0.8-0.3,1-0.8c0.2-0.6,0.5-1.6,0.8-3.2l12.3-59.1c0.2-1.1,0.7-1.8,1.3-2c0.6-0.2,1.6-0.4,2.9-0.4
		h31.3c1,0,1.7,0.1,2.1,0.4c0.4,0.2,0.6,0.9,0.6,2v124.5c0,0.9-0.2,1.4-0.6,1.7c-0.4,0.2-1,0.4-2,0.4h-16.4c-1.2,0-2.1-0.1-2.5-0.4
		c-0.4-0.2-0.6-1-0.6-2.2V61.5c0-0.9-0.2-1.3-0.7-1.3C516.8,60.2,516.5,60.6,516.4,61.5z"/>
	<path class="st0" d="M580.6,100.1v18.4c0,2,0.5,3.3,1.6,3.9c1,0.6,2.5,0.9,4.3,0.9h28.9c2.2,0,3.6,0.2,4.1,0.6
		c0.6,0.4,0.8,1.6,0.8,3.4v15.8c0,2.6-0.5,4.2-1.5,4.9c-1,0.7-2.7,1-5.2,1h-53c-2.3,0-3.9-0.4-4.7-1.1c-0.8-0.7-1.2-2.3-1.2-4.8
		v-118c0-2.5,0.3-3.9,0.9-4.3c0.6-0.4,2.3-0.6,5-0.6h51.2c2.8,0,4.7,0.2,5.6,0.7c0.9,0.5,1.4,1.8,1.4,3.9v16.9c0,1.8-0.2,3-0.7,3.5
		c-0.5,0.5-1.6,0.7-3.3,0.7h-29.3c-1.8,0-3.1,0.2-3.9,0.7c-0.7,0.5-1.1,1.7-1.1,3.5v16.9c0,1.6,0.2,2.6,0.6,3
		c0.4,0.4,1.3,0.6,2.9,0.6H605c1.2,0,2.1,0.2,2.7,0.6c0.6,0.4,0.8,1.2,0.8,2.6v18.2c0,2.3-1.2,3.5-3.5,3.5h-18.8
		c-2,0-3.4,0.2-4.2,0.7C581.1,97,580.6,98.2,580.6,100.1z"/>
	<path class="st0" d="M627.8,44.2V23.7c0-1.7,0.2-2.7,0.6-3c0.4-0.3,1.3-0.5,2.9-0.5h76.4c1.3,0,2.2,0.2,2.5,0.6
		c0.3,0.4,0.5,1.2,0.5,2.6v19.9c0,1.5-0.2,2.5-0.5,2.9c-0.3,0.5-1.3,0.7-2.9,0.7h-21c-1.6,0-2.5,0.3-2.9,1c-0.3,0.7-0.5,1.7-0.5,3
		v95.7c0,1-0.1,1.6-0.4,1.9c-0.2,0.3-0.9,0.5-1.8,0.5h-24.1c-1,0-1.6-0.2-1.8-0.6c-0.2-0.4-0.4-1-0.4-1.8V50.6
		c0-1.8-0.2-2.9-0.5-3.2c-0.3-0.3-1.4-0.5-3.2-0.5h-19.9c-1.4,0-2.2-0.1-2.6-0.4C628,46.3,627.8,45.5,627.8,44.2z"/>
	<path class="st0" d="M785.6,149.1c-2.2,0-4,0-5.2,0c-1.3,0-2.2-0.4-2.7-1.2c-0.5-0.8-0.7-2.4-0.7-4.9V26.9c0-3.1,0.6-4.9,1.9-5.6
		c1.3-0.7,3.5-1,6.7-1h24.9c9.5,0,16.8,1.5,22,4.4c5.2,2.9,9,7.2,11.4,12.7c2.4,5.5,3.9,12.3,4.4,20.3c0.6,8,0.8,17,0.8,27.1
		c0,10.1-0.3,19.1-0.8,27.1c-0.6,8-2,14.7-4.4,20.3c-2.4,5.5-6.2,9.8-11.4,12.7c-5.2,2.9-12.6,4.4-22,4.4H785.6z M808.6,123.3
		c2.1,0,4-0.2,5.7-0.7c1.7-0.5,3.1-1.5,4.1-3.1c1.7-2.6,2.8-7,3.1-13.3c0.4-6.3,0.6-14.1,0.6-23.4c0-9.2-0.2-16.7-0.5-22.4
		c-0.3-5.7-1.1-10-2.5-12.8c-1-2.1-2.4-3.5-4.1-4.2c-1.8-0.7-3.9-1.1-6.4-1.1c-1.5,0-2.8,0.1-4.1,0.4c-1.2,0.2-1.8,1.5-1.8,3.9v73.3
		c0,1.6,0.5,2.6,1.6,2.9C805.3,123.2,806.7,123.3,808.6,123.3z"/>
	<path class="st0" d="M864,20.2h23.6c1.3,0,2,0.8,2,2.4v124.1c0,0.9-0.1,1.5-0.4,1.8c-0.2,0.4-0.9,0.6-1.8,0.6h-22.6
		c-1.2,0-2-0.3-2.3-0.8c-0.3-0.6-0.5-1.5-0.5-2.9V22.3c0-0.9,0.1-1.4,0.4-1.7C862.6,20.4,863.1,20.2,864,20.2z"/>
	<path class="st0" d="M930.1,100.1v18.4c0,2,0.5,3.3,1.6,3.9c1,0.6,2.5,0.9,4.3,0.9h28.9c2.2,0,3.6,0.2,4.1,0.6
		c0.6,0.4,0.8,1.6,0.8,3.4v15.8c0,2.6-0.5,4.2-1.5,4.9c-1,0.7-2.7,1-5.2,1h-53c-2.3,0-3.9-0.4-4.7-1.1c-0.8-0.7-1.2-2.3-1.2-4.8
		v-118c0-2.5,0.3-3.9,0.9-4.3c0.6-0.4,2.3-0.6,5-0.6h51.2c2.8,0,4.7,0.2,5.6,0.7c0.9,0.5,1.4,1.8,1.4,3.9v16.9c0,1.8-0.2,3-0.7,3.5
		c-0.5,0.5-1.6,0.7-3.3,0.7h-29.3c-1.8,0-3.1,0.2-3.9,0.7c-0.7,0.5-1.1,1.7-1.1,3.5v16.9c0,1.6,0.2,2.6,0.6,3
		c0.4,0.4,1.3,0.6,2.9,0.6h20.8c1.2,0,2.1,0.2,2.7,0.6c0.6,0.4,0.8,1.2,0.8,2.6v18.2c0,2.3-1.2,3.5-3.5,3.5h-18.8
		c-2,0-3.4,0.2-4.2,0.7C930.5,97,930.1,98.2,930.1,100.1z"/>
</g>
<path d="M487.6,548.3c-148.6,0-269.1,120.5-269.1,269.1c0,108.3,64,201.6,156.2,244.3L476,1201.9c5.9,8.8,18.3,8.8,24.2-0.1
	l97.6-138.9c93.7-42.1,158.9-136.2,158.9-245.5C756.7,668.8,636.2,548.3,487.6,548.3z M506.7,1003.8c-98,3.2-158.8-62.5-187.3-104.1
	c-17.5-25.5-28.2-55-30.4-85.8c-2.1-29.6,3.3-64.4,33.3-84.2c11.4-7.5,21.8-16.5,30.4-27.2c9.1-11.4,18-26.1,19.5-41.1
	c0.3-3,0.9-6,1.8-8.9c1.4-4.2,3.7-9,6.4-8.5c3.7,0.7,19.3,12,25.9,16.9c1.9,1.4,3.3,3.5,3.8,5.8c0.9,3.7-0.5,7.6-3.5,10.1l-7.4,6.1
	c-0.7,0.5-1.2,1.2-1.8,1.9c-4.4,6-25.4,36.3-18.8,56.7c6.2,19.2-5.7,86.4,56.4,133.6c19.7,15,43.1,24.7,67.6,28.6
	c29,4.7,80.8,9.5,151.1,2.1c7.9-0.8,16,1.1,22.4,5.8c0.1,0.1,0.2,0.2,0.3,0.2c6.6,5,8.1,14.3,3.4,21.2
	C667.8,950.6,623.5,999.9,506.7,1003.8z"/>
</svg>
