<?xml version="1.0" encoding="utf-8"?>
<!-- Generator: Adobe Illustrator 28.0.0, SVG Export Plug-In . SVG Version: 6.00 Build 0)  -->
<svg version="1.1" id="Laag_1" xmlns="http://www.w3.org/2000/svg" xmlns:xlink="http://www.w3.org/1999/xlink" x="0px" y="0px"
	 viewBox="0 0 93 93" style="enable-background:new 0 0 93 93;" xml:space="preserve">
<style type="text/css">
	.st0{fill:none;}
</style>
<polygon class="st0" points="-606.4,135.8 -602.1,135.8 -602.1,135.8 "/>
<path d="M46.3-0.4C20.5-0.4-0.4,20.5-0.4,46.3S20.5,93,46.3,93S93,72.1,93,46.3S72.1-0.4,46.3-0.4z M79.1,41.1
	c-0.5,1.5-1.9,2.5-3.5,2.5l-4.9,13.3h0.1c0.7,0,1.2,0.5,1.2,1.2v5.6c0,0.7-0.5,1.2-1.2,1.2h-49c-0.7,0-1.2-0.5-1.2-1.2v-5.6
	c0-0.7,0.5-1.2,1.2-1.2h0.1L17,43.6c-1.6,0-3-1-3.5-2.5c-0.8-2.5,1.1-4.9,3.5-4.9c2,0,3.7,1.7,3.7,3.7c0,0.1,0,0.1,0,0.2L32,48.5
	L43.4,34c-0.7-0.8-1.1-1.9-1-3c0.2-1.6,1.6-3,3.2-3.2c2.2-0.3,4.1,1.5,4.1,3.7c0,0.9-0.3,1.8-0.9,2.4l11.4,14.6l11.6-8.3
	c0-0.1,0-0.1,0-0.2c0-2,1.7-3.7,3.7-3.7C78,36.2,79.9,38.6,79.1,41.1z"/>
</svg>
