<?xml version="1.0" encoding="utf-8"?>
<!-- Generator: Adobe Illustrator 28.0.0, SVG Export Plug-In . SVG Version: 6.00 Build 0)  -->
<svg version="1.1" id="Laag_1" xmlns="http://www.w3.org/2000/svg" xmlns:xlink="http://www.w3.org/1999/xlink" x="0px" y="0px"
	 viewBox="0 0 538.1 537.2" style="enable-background:new 0 0 538.1 537.2;" xml:space="preserve">
<style type="text/css">
	.st0{fill:#FFFFFF;}
	.st1{fill:#FCD921;}
</style>
<circle class="st0" cx="269" cy="268.6" r="268.6"/>
<g>
	<path class="st1" d="M186.5,130.8c-0.7,0.5-1.2,1.2-1.6,1.9c-4.2,5.8-24.9,35.7-18.4,55.5c6.1,18.9-5.6,84.6,55.3,130.8
		c19.4,14.7,42.2,24.2,66.2,28c28.4,4.7,79.3,9.3,148.1,2.1c7.7-0.9,15.6,1.2,21.9,5.6l0.2,0.2c6.5,4.9,7.9,14,3.3,20.8
		c-12.1,17.5-55.5,65.8-169.7,69.5c-96.1,3.3-155.5-61.3-183.5-101.9c-17-24.9-27.7-53.9-29.8-84.2c-2.1-28.9,3.3-63.2,32.6-82.5
		c11.2-7.5,21.5-16.1,29.8-26.6c8.9-11.2,17.7-25.6,19.1-40.3c0.2-3,0.9-5.8,1.9-8.6c1.4-4.2,3.5-8.9,6.3-8.4
		c3.7,0.7,18.9,11.9,25.4,16.6c1.9,1.4,3.3,3.5,3.7,5.6l0,0c0.9,3.7-0.5,7.5-3.5,9.8L186.5,130.8z"/>
</g>
</svg>
